<?xml version="1.0" encoding="UTF-8" standalone="no"?>
<svg
   xmlns:dc="http://purl.org/dc/elements/1.1/"
   xmlns:cc="http://creativecommons.org/ns#"
   xmlns:rdf="http://www.w3.org/1999/02/22-rdf-syntax-ns#"
   xmlns:svg="http://www.w3.org/2000/svg"
   xmlns="http://www.w3.org/2000/svg"
   xmlns:sodipodi="http://sodipodi.sourceforge.net/DTD/sodipodi-0.dtd"
   xmlns:inkscape="http://www.inkscape.org/namespaces/inkscape"
   version="1.1"
   viewBox="-10 0 22 22"
   id="svg6"
   sodipodi:docname="search.svg"
   width="22"
   height="22"
   inkscape:version="0.92.4 5da689c313, 2019-01-14">
  <metadata
     id="metadata12">
    <rdf:RDF>
      <cc:Work
         rdf:about="">
        <dc:format>image/svg+xml</dc:format>
        <dc:type
           rdf:resource="http://purl.org/dc/dcmitype/StillImage" />
        <dc:title></dc:title>
      </cc:Work>
    </rdf:RDF>
  </metadata>
  <defs
     id="defs10" />
  <sodipodi:namedview
     pagecolor="#ffffff"
     bordercolor="#666666"
     borderopacity="1"
     objecttolerance="10"
     gridtolerance="10"
     guidetolerance="10"
     inkscape:pageopacity="0"
     inkscape:pageshadow="2"
     inkscape:window-width="1366"
     inkscape:window-height="702"
     id="namedview8"
     showgrid="true"
     inkscape:zoom="14.75"
     inkscape:cx="7.7043553"
     inkscape:cy="9.2150261"
     inkscape:window-x="0"
     inkscape:window-y="0"
     inkscape:window-maximized="1"
     inkscape:current-layer="svg6">
    <inkscape:grid
       type="xygrid"
       id="grid822" />
  </sodipodi:namedview>
  <g
     transform="matrix(0.00878906,0,0,-0.00878906,-8,20)"
     id="g4"
     style="stroke-width:113.77783203">
    <path
       d="m 1344,2048 q 97,0 187,-25 90,-25 168,-71 78,-46 142.5,-110.5 64.5,-64.5 110.5,-142.5 46,-78 71,-168 25,-90 25,-187 0,-97 -25,-187 -25,-90 -71,-168 Q 1906,911 1841.5,846.5 1777,782 1699,736 q -78,-46 -168,-71 -90,-25 -187,-25 -125,0 -239.5,42 Q 990,724 894,803 L 109,19 Q 90,0 64,0 38,0 19,19 0,38 0,64 0,90 19,109 l 784,785 q -79,96 -121,210.5 -42,114.5 -42,239.5 0,97 25,187 25,90 71,168 46,78 110.5,142.5 64.5,64.5 142.5,110.5 78,46 168,71 90,25 187,25 z m 0,-1280 q 119,0 224,45.5 105,45.5 183,123.5 78,78 123.5,183 45.5,105 45.5,224 0,119 -45.5,224 -45.5,105 -123.5,183 -78,78 -183,123.5 -105,45.5 -224,45.5 -119,0 -224,-45.5 Q 1015,1829 937,1751 859,1673 813.5,1568 768,1463 768,1344 768,1225 813.5,1120 859,1015 937,937 1015,859 1120,813.5 1225,768 1344,768 Z"
       id="path2"
       inkscape:connector-curvature="0"
       style="fill:currentColor;stroke-width:113.77783203" />
  </g>
</svg>
