<?xml version="1.0" encoding="UTF-8" standalone="no"?>
<!-- Created with Inkscape (http://www.inkscape.org/) -->

<svg
   width="22.0px"
   height="22.0px"
   viewBox="0 0 22.0 22.0"
   version="1.1"
   id="SVGRoot"
   sodipodi:docname="explorer.svg"
   inkscape:version="1.1 (c4e8f9ed74, 2021-05-24)"
   xmlns:inkscape="http://www.inkscape.org/namespaces/inkscape"
   xmlns:sodipodi="http://sodipodi.sourceforge.net/DTD/sodipodi-0.dtd"
   xmlns="http://www.w3.org/2000/svg"
   xmlns:svg="http://www.w3.org/2000/svg">
  <sodipodi:namedview
     id="namedview829"
     pagecolor="#505050"
     bordercolor="#eeeeee"
     borderopacity="1"
     inkscape:pageshadow="0"
     inkscape:pageopacity="0"
     inkscape:pagecheckerboard="0"
     inkscape:document-units="px"
     showgrid="true"
     inkscape:zoom="23.461503"
     inkscape:cx="4.8164007"
     inkscape:cy="7.6295197"
     inkscape:window-width="1920"
     inkscape:window-height="1005"
     inkscape:window-x="0"
     inkscape:window-y="0"
     inkscape:window-maximized="1"
     inkscape:current-layer="g954">
    <inkscape:grid
       type="xygrid"
       id="grid892" />
  </sodipodi:namedview>
  <defs
     id="defs824" />
  <g
     inkscape:label="Layer 1"
     inkscape:groupmode="layer"
     id="layer1">
    <g
       id="g954"
       transform="matrix(1.3571429,0,0,1.3571429,56.642857,-8.5)">
      <path
         id="path930"
         d="m -35.105262,9.210526 v 1 h 8 v 9 h -3 v 1 h 3 c 0.554,0 1,-0.446 1,-1 v -9 c 0,-0.5539998 -0.446,-1 -1,-1 z m -6,2 v 8 c 0,0.554 0.446,1 1,1 h 3 v -1 h -3 v -8 z m 5,8 v 1 h 5 v -1 z"
         style="opacity:1;fill:#151515;fill-opacity:1;stroke:none;stroke-width:0.991031;stroke-miterlimit:4;stroke-dasharray:none;stroke-opacity:1"
         inkscape:connector-curvature="0" />
      <path
         inkscape:connector-curvature="0"
         id="path932"
         d="m -35.105262,9.210526 h -1 v 1 h -5 v 1 h 5 c 0.554,0 1,-0.446 1,-1 z"
         style="opacity:1;fill:#151515;fill-opacity:1;stroke:none;stroke-width:0.991031;stroke-miterlimit:4;stroke-dasharray:none;stroke-opacity:1" />
      <path
         id="path934"
         d="M -40.105262,8.2105263 V 9.210526 h 4 v 1 h 1 v -1 c 0,-0.5539997 -0.446,-0.9999997 -1,-0.9999997 z"
         style="opacity:1;fill:#151515;fill-opacity:1;stroke:none;stroke-width:0.991031;stroke-miterlimit:4;stroke-dasharray:none;stroke-opacity:1"
         inkscape:connector-curvature="0" />
      <path
         id="path936"
         d="m -41.105262,9.210526 v 2 h 1 V 8.2105263 c -0.554,0 -1,0.446 -1,0.9999997 z"
         style="opacity:1;fill:#151515;fill-opacity:1;stroke:none;stroke-width:2;stroke-miterlimit:4;stroke-dasharray:none;stroke-opacity:1"
         inkscape:connector-curvature="0" />
      <path
         inkscape:connector-curvature="0"
         id="path938"
         d="m -37.105262,14.210526 c -0.554,0 -1,0.446 -1,1 v 3 h 1 v -3 h 7 v 3 h 1 v -3 c 0,-0.554 -0.446,-1 -1,-1 z"
         style="opacity:1;fill:#151515;fill-opacity:1;stroke:none;stroke-width:0.694365;stroke-miterlimit:4;stroke-dasharray:none;stroke-opacity:1" />
      <path
         inkscape:connector-curvature="0"
         id="path940"
         d="m -36.105262,16.210526 v 2 h 1 v -1 h 3 v 1 h 1 v -2 z"
         style="opacity:1;fill:#151515;fill-opacity:1;stroke:none;stroke-width:0.517549;stroke-miterlimit:4;stroke-dasharray:none;stroke-opacity:1" />
      <path
         id="path942"
         d="m -37.105262,19.210526 c -0.554,0 -1,0.446 -1,1 0,0.554 0.446,1 1,1 h 1 c 0.554,0 1,-0.446 1,-1 0,-0.554 -0.446,-1 -1,-1 v 1 h -1 z"
         style="opacity:1;fill:#151515;fill-opacity:1;stroke:none;stroke-width:1.41421;stroke-miterlimit:4;stroke-dasharray:none;stroke-opacity:1"
         inkscape:connector-curvature="0" />
      <rect
         style="opacity:1;fill:#151515;fill-opacity:1;stroke:none;stroke-width:0.57735;stroke-miterlimit:4;stroke-dasharray:none;stroke-opacity:1"
         id="rect944"
         width="0.99999899"
         height="1"
         x="-38.105263"
         y="18.210527"
         ry="0"
         rx="0" />
      <rect
         rx="0"
         ry="0"
         y="18.210527"
         x="-36.105263"
         height="1"
         width="0.99999893"
         id="rect946"
         style="opacity:1;fill:#151515;fill-opacity:1;stroke:none;stroke-width:0.57735;stroke-miterlimit:4;stroke-dasharray:none;stroke-opacity:1" />
      <rect
         style="opacity:1;fill:#151515;fill-opacity:1;stroke:none;stroke-width:0.577351;stroke-miterlimit:4;stroke-dasharray:none;stroke-opacity:1"
         id="rect948"
         width="1.0000027"
         height="1"
         x="-32.105263"
         y="18.210527"
         ry="0"
         rx="0" />
      <rect
         rx="0"
         ry="0"
         y="18.210527"
         x="-30.105263"
         height="1"
         width="1.0000008"
         id="rect950"
         style="opacity:1;fill:#151515;fill-opacity:1;stroke:none;stroke-width:0.57735;stroke-miterlimit:4;stroke-dasharray:none;stroke-opacity:1" />
      <path
         inkscape:connector-curvature="0"
         style="opacity:1;fill:#151515;fill-opacity:1;stroke:none;stroke-width:1.41421;stroke-miterlimit:4;stroke-dasharray:none;stroke-opacity:1"
         d="m -31.105262,19.210526 c -0.554,0 -1,0.446 -1,1 0,0.554 0.446,1 1,1 h 1 c 0.554,0 1,-0.446 1,-1 0,-0.554 -0.446,-1 -1,-1 v 1 h -1 z"
         id="path952" />
    </g>
  </g>
</svg>
