<?xml version="1.0" encoding="UTF-8" standalone="no"?>
<!-- Created with Inkscape (http://www.inkscape.org/) -->

<svg
   width="22.0px"
   height="22.0px"
   viewBox="0 0 22.0 22.0"
   version="1.1"
   id="SVGRoot"
   sodipodi:docname="explorer.svg"
   inkscape:version="1.1 (c4e8f9ed74, 2021-05-24)"
   xmlns:inkscape="http://www.inkscape.org/namespaces/inkscape"
   xmlns:sodipodi="http://sodipodi.sourceforge.net/DTD/sodipodi-0.dtd"
   xmlns="http://www.w3.org/2000/svg"
   xmlns:svg="http://www.w3.org/2000/svg">
  <sodipodi:namedview
     id="namedview829"
     pagecolor="#505050"
     bordercolor="#eeeeee"
     borderopacity="1"
     inkscape:pageshadow="0"
     inkscape:pageopacity="0"
     inkscape:pagecheckerboard="0"
     inkscape:document-units="px"
     showgrid="true"
     inkscape:zoom="33.179576"
     inkscape:cx="13.426935"
     inkscape:cy="10.78977"
     inkscape:window-width="1920"
     inkscape:window-height="1003"
     inkscape:window-x="0"
     inkscape:window-y="0"
     inkscape:window-maximized="1"
     inkscape:current-layer="layer1">
    <inkscape:grid
       type="xygrid"
       id="grid892" />
  </sodipodi:namedview>
  <defs
     id="defs824" />
  <g
     inkscape:label="Layer 1"
     inkscape:groupmode="layer"
     id="layer1">
    <path
       id="path929"
       style="fill:#ffffff;stroke-width:0.0226009"
       d="M 5.4746094 2.484375 C 2.1315608 2.484182 2.0103085 2.4865969 1.8027344 2.5292969 C 1.1759897 2.6582228 0.62885169 3.1658974 0.453125 3.7832031 C 0.3967008 3.9815618 0.386987 5.4234996 0.40039062 12.248047 L 0.41210938 18 L 0.46484375 18.158203 C 0.6688782 18.766313 1.14481 19.217565 1.7421875 19.371094 C 1.9132073 19.415056 2.0035912 19.419925 2.9492188 19.429688 L 3.9726562 19.439453 L 3.9726562 19.707031 C 3.9726562 19.854138 3.9828718 20.004065 3.9960938 20.039062 C 4.0302163 20.129375 4.12708 20.224353 4.2324219 20.273438 C 4.3180381 20.313447 4.3986569 20.315647 5.7578125 20.310547 C 7.1640529 20.305237 7.1946241 20.304073 7.2832031 20.257812 C 7.3329254 20.231843 7.4041153 20.168014 7.4414062 20.115234 C 7.5069222 20.02251 7.5099281 20.008627 7.5175781 19.726562 L 7.5253906 19.435547 L 11.091797 19.435547 L 14.658203 19.435547 L 14.666016 19.726562 C 14.673676 20.008627 14.676668 20.022504 14.742188 20.115234 C 14.779478 20.168017 14.850681 20.231842 14.900391 20.257812 C 14.988832 20.303943 15.020438 20.3059 16.402344 20.3125 C 17.379381 20.31721 17.841511 20.312062 17.900391 20.294922 C 18.00709 20.263857 18.139637 20.148574 18.179688 20.052734 C 18.199548 20.005204 18.210938 19.884455 18.210938 19.708984 L 18.210938 19.439453 L 19.222656 19.429688 C 20.369295 19.419115 20.417803 19.414178 20.775391 19.244141 C 21.21806 19.033648 21.552696 18.647292 21.716797 18.158203 L 21.769531 18 L 21.775391 11.931641 C 21.781809 5.3981101 21.7883 5.7091795 21.669922 5.3945312 C 21.52136 4.9996575 21.099116 4.5663167 20.708984 4.4082031 C 20.37162 4.2714947 20.788859 4.2823406 15.589844 4.2753906 L 10.832031 4.2695312 L 9.984375 3.4238281 C 9.350411 2.7907684 9.1112282 2.565386 9.0351562 2.53125 C 8.9345664 2.4861133 8.8946772 2.4845722 5.4746094 2.484375 z M 5.4296875 3.3652344 L 8.6855469 3.3652344 L 9.3457031 4.0273438 C 9.7092167 4.3910145 10.005859 4.6985115 10.005859 4.7109375 C 10.005859 4.7233694 9.7093739 5.0310176 9.3457031 5.3945312 L 8.6835938 6.0546875 L 4.9824219 6.0546875 L 1.28125 6.0546875 L 1.2871094 5.0449219 L 1.2929688 4.0332031 L 1.3554688 3.9023438 C 1.4782153 3.6404039 1.7510865 3.4364763 2.0429688 3.3886719 C 2.12202 3.3757554 3.47394 3.3653129 5.4296875 3.3652344 z M 10.832031 5.1523438 L 15.445312 5.1523438 C 18.471488 5.1523438 20.099827 5.1587831 20.179688 5.1738281 C 20.449924 5.2247539 20.706508 5.4278794 20.828125 5.6875 L 20.888672 5.8183594 L 20.894531 11.796875 C 20.900431 17.71654 20.900169 17.776402 20.855469 17.921875 C 20.784024 18.154405 20.611256 18.343728 20.365234 18.458984 L 20.234375 18.519531 L 19.222656 18.527344 L 18.210938 18.533203 L 18.210938 15.742188 C 18.210938 13.829982 18.202287 12.914081 18.185547 12.832031 C 18.113028 12.476714 17.962868 12.202387 17.691406 11.931641 C 17.453457 11.694321 17.2559 11.573583 16.945312 11.476562 L 16.775391 11.423828 L 11.091797 11.423828 L 5.4082031 11.423828 L 5.2382812 11.476562 C 4.6004924 11.67581 4.1266237 12.192482 3.9960938 12.832031 C 3.9793028 12.914082 3.9726562 13.828804 3.9726562 15.740234 L 3.9726562 18.53125 L 3.0058594 18.529297 C 2.4744549 18.528047 2.0017431 18.516859 1.9550781 18.505859 C 1.6780114 18.440559 1.422816 18.206879 1.328125 17.931641 C 1.2834344 17.801735 1.2832031 17.741729 1.2832031 12.369141 L 1.2832031 6.9375 L 5.1191406 6.9355469 C 8.8231017 6.9350629 8.959595 6.9335041 9.046875 6.8925781 C 9.1064734 6.8646308 9.4257141 6.5622142 9.984375 6.0019531 L 10.832031 5.1523438 z M 7.6425781 12.292969 C 8.4569972 12.291607 9.568924 12.292969 11.091797 12.292969 C 17.183287 12.292969 16.692006 12.280424 16.9375 12.443359 C 17.050938 12.51865 17.180418 12.658036 17.236328 12.763672 C 17.329958 12.940595 17.327869 12.87814 17.328125 16.232422 L 17.330078 19.435547 L 16.435547 19.435547 L 15.542969 19.435547 L 15.542969 16.9375 C 15.542969 14.204633 15.551336 14.3523 15.414062 14.208984 C 15.283713 14.07296 15.506158 14.078125 11.091797 14.078125 C 6.6774319 14.078125 6.899882 14.072894 6.7695312 14.208984 C 6.6322394 14.3523 6.6386719 14.204628 6.6386719 16.9375 L 6.6386719 19.435547 L 5.7460938 19.435547 L 4.8535156 19.435547 L 4.8535156 16.232422 C 4.8537676 12.87814 4.8516675 12.940595 4.9453125 12.763672 C 5.0012282 12.658036 5.1326551 12.518639 5.2460938 12.443359 C 5.4302143 12.321154 5.199321 12.297054 7.6425781 12.292969 z M 7.5195312 14.960938 L 11.091797 14.960938 L 14.662109 14.960938 L 14.662109 16.746094 L 14.662109 18.53125 L 11.091797 18.53125 L 7.5195312 18.53125 L 7.5195312 16.746094 L 7.5195312 14.960938 z " />
  </g>
</svg>
