<?xml version="1.0" encoding="UTF-8" standalone="no"?>
<svg
   xmlns:dc="http://purl.org/dc/elements/1.1/"
   xmlns:cc="http://creativecommons.org/ns#"
   xmlns:rdf="http://www.w3.org/1999/02/22-rdf-syntax-ns#"
   xmlns:svg="http://www.w3.org/2000/svg"
   xmlns="http://www.w3.org/2000/svg"
   xmlns:sodipodi="http://sodipodi.sourceforge.net/DTD/sodipodi-0.dtd"
   xmlns:inkscape="http://www.inkscape.org/namespaces/inkscape"
   width="22.0px"
   height="22.0px"
   viewBox="0 0 22.0 22.0"
   version="1.1"
   id="SVGRoot"
   sodipodi:docname="explorer_dark.svg"
   inkscape:version="1.0.2 (e86c870879, 2021-01-15)">
  <metadata
     id="metadata8">
    <rdf:RDF>
      <cc:Work
         rdf:about="">
        <dc:format>image/svg+xml</dc:format>
        <dc:type
           rdf:resource="http://purl.org/dc/dcmitype/StillImage" />
        <dc:title></dc:title>
      </cc:Work>
    </rdf:RDF>
  </metadata>
  <sodipodi:namedview
     id="namedview841"
     pagecolor="#505050"
     bordercolor="#eeeeee"
     borderopacity="1"
     inkscape:pageshadow="0"
     inkscape:pageopacity="0"
     inkscape:pagecheckerboard="0"
     inkscape:document-units="px"
     showgrid="true"
     inkscape:zoom="23.518518"
     inkscape:cx="8.1425197"
     inkscape:cy="11.310236"
     inkscape:window-width="2560"
     inkscape:window-height="1385"
     inkscape:window-x="0"
     inkscape:window-y="0"
     inkscape:window-maximized="1"
     inkscape:current-layer="layer2"
     inkscape:document-rotation="0">
    <inkscape:grid
       type="xygrid"
       id="grid904" />
  </sodipodi:namedview>
  <defs
     id="defs836" />
  <g
     inkscape:groupmode="layer"
     id="layer2"
     inkscape:label="Layer 2">
    <path
       style="fill:#232627;fill-opacity:1;stroke-width:0.0820692"
       d="M 4.045141,19.576741 C 3.9909758,19.522577 3.946658,19.337919 3.946658,19.166395 V 18.854531 H 2.9918661 c -0.5251355,0 -1.1068013,-0.04514 -1.2925904,-0.100311 C 1.2569192,18.622854 0.6246374,17.996248 0.5070275,17.572673 0.4471355,17.35697 0.4184485,15.067232 0.4181385,10.47767 L 0.4176809,3.7011555 0.6433713,3.255576 C 0.8039368,2.9385721 0.9842266,2.7330303 1.2681654,2.5432711 L 1.6672695,2.2765461 H 5.3065763 8.9458831 L 9.7905927,3.1384551 10.6353,4.0003641 15.317651,4.0001821 20,4 20.417181,4.2078904 c 0.44561,0.2220564 0.794474,0.6391052 0.930048,1.1118188 0.125242,0.4366971 0.106522,11.8267088 -0.02015,12.2532278 -0.131904,0.444171 -0.737106,1.049375 -1.181279,1.181278 -0.185788,0.05517 -0.767455,0.100312 -1.29259,0.100312 h -0.954782 v 0.311864 c 0,0.171525 -0.04432,0.35618 -0.09848,0.410345 -0.138827,0.138827 -3.111116,0.138827 -3.249942,0 -0.05416,-0.05416 -0.09848,-0.23882 -0.09848,-0.410345 v -0.31186 H 10.922543 7.3935658 v 0.311864 c 0,0.171524 -0.044318,0.35618 -0.098483,0.410346 -0.069539,0.06953 -0.5471283,0.09848 -1.6249709,0.09848 -1.0778426,0 -1.5554327,-0.02894 -1.6249709,-0.09848 z m 2.5277325,-3.198342 c 0,-2.188896 0.015756,-2.493542 0.1358236,-2.626214 0.1281001,-0.141549 0.3669061,-0.150084 4.1995859,-0.150084 3.666204,0 4.078446,0.0133 4.213845,0.135823 0.139118,0.125899 0.150086,0.31779 0.150086,2.626216 v 2.490391 h 0.905459 0.905462 l -0.02322,-3.274236 c -0.026,-3.668247 -0.0016,-3.526081 -0.630522,-3.70073 -0.39964,-0.111011 -10.6140649,-0.111011 -11.0137048,0 -0.6287329,0.174649 -0.6045112,0.03247 -0.6305209,3.70073 l -0.023216,3.274236 H 5.6674151 6.5728755 Z M 3.946658,15.120381 c 0.040782,-2.85486 0.042252,-2.874548 0.2401688,-3.220089 0.2201631,-0.38438 0.6510405,-0.721339 1.0795405,-0.844232 0.3757084,-0.107751 10.9366437,-0.107751 11.3123517,0 0.4285,0.122893 0.859377,0.459852 1.07954,0.844232 0.197916,0.345541 0.199387,0.365229 0.240169,3.220089 l 0.04104,2.872424 h 1.029711 c 1.191937,0 1.409016,-0.08318 1.550941,-0.594225 C 20.634741,16.985845 20.638103,5.8807636 20.52382,5.4690319 20.478587,5.3065305 20.364141,5.1034092 20.269404,5.017651 20.105015,4.8688401 19.881806,4.8607012 15.376476,4.8392452 L 10.655794,4.8167635 9.7801676,5.6796243 8.9045433,6.5424849 5.0919757,6.5638332 1.2794079,6.5851815 v 5.4202305 c 0,5.030047 0.01037,5.436052 0.144048,5.640023 0.1985358,0.302933 0.5286109,0.37854 1.5794059,0.361774 l 0.9027616,-0.01441 z m 10.463826,1.107935 V 14.463828 H 10.922543 7.4346005 l -0.022274,1.680203 c -0.012251,0.924111 -0.00402,1.727767 0.018285,1.785898 0.032379,0.08437 0.7403005,0.101378 3.5102185,0.08429 l 3.469658,-0.0214 z M 9.2401236,5.0669 9.8928272,4.4103461 9.2401236,3.7537923 8.5874205,3.0972386 H 5.2014339 1.8154475 L 1.5507501,3.3337455 1.2860526,3.5702527 1.2525085,4.6468534 1.2189654,5.723454 H 4.9031927 8.5874205 Z M 2.3216871,4.7222093 C 2.2675221,4.6680443 2.2232041,4.5277052 2.2232041,4.4103461 2.2232041,4.0007148 2.2284441,4 5.2224251,4 7.8329768,4 8.0339717,4.010267 8.1605036,4.1500836 8.3370386,4.3451524 8.3324748,4.5163327 8.1462436,4.6848688 8.012789,4.8056434 7.6872541,4.8206924 5.2081649,4.8206924 c -2.0590151,0 -2.8137457,-0.02575 -2.8864778,-0.098483 z M 17.412493,-0.72582 c 0.004,-0.095607 0.02338,-0.1150529 0.04958,-0.049583 0.02371,0.059243 0.0208,0.1300285 -0.0064,0.1572995 -0.02725,0.027271 -0.04664,-0.021202 -0.04306,-0.107716 z M 6.6549427,-0.764859 c 0,-0.047802 0.036931,-0.064088 0.082069,-0.036191 0.045137,0.027897 0.08207,0.067007 0.08207,0.086914 0,0.019905 -0.036931,0.036191 -0.08207,0.036191 -0.045138,0 -0.082069,-0.039111 -0.082069,-0.086914 z"
       id="path942" />
  </g>
</svg>
